<mxfile host="app.diagrams.net" agent="Mozilla/5.0 (X11; Linux x86_64) AppleWebKit/537.36 (KHTML, like Gecko) Chrome/134.0.0.0 Safari/537.36" version="26.1.0">
  <diagram name="Page-1" id="XsKjswDsnSn-sBIZdLU6">
    <mxGraphModel dx="1395" dy="628" grid="1" gridSize="10" guides="1" tooltips="1" connect="1" arrows="1" fold="1" page="1" pageScale="1" pageWidth="850" pageHeight="1100" math="0" shadow="0">
      <root>
        <mxCell id="0" />
        <mxCell id="1" parent="0" />
        <mxCell id="7-5hp06oOx9DGlblAHuX-1" value="FRONTEND&lt;div&gt;EC2&lt;/div&gt;&lt;div&gt;(NOT SCALED?)&lt;/div&gt;" style="rounded=1;whiteSpace=wrap;html=1;" parent="1" vertex="1">
          <mxGeometry x="150" y="380" width="130" height="70" as="geometry" />
        </mxCell>
        <mxCell id="7-5hp06oOx9DGlblAHuX-2" value="AWS ECS ap-south-1&lt;div&gt;aus cluster (1, 2, 5)&lt;/div&gt;" style="rounded=1;whiteSpace=wrap;html=1;" parent="1" vertex="1">
          <mxGeometry x="345" y="380" width="150" height="70" as="geometry" />
        </mxCell>
        <mxCell id="7-5hp06oOx9DGlblAHuX-4" value="AWS ECS us-east-1&lt;div&gt;aus cluster (1, 2, 5)&lt;/div&gt;" style="rounded=1;whiteSpace=wrap;html=1;" parent="1" vertex="1">
          <mxGeometry x="560" y="380" width="150" height="70" as="geometry" />
        </mxCell>
        <mxCell id="7-5hp06oOx9DGlblAHuX-6" value="nginx reverse proxy (or use golang?)&lt;br&gt;EC2" style="rounded=1;whiteSpace=wrap;html=1;" parent="1" vertex="1">
          <mxGeometry x="270" y="170" width="300" height="100" as="geometry" />
        </mxCell>
        <mxCell id="7-5hp06oOx9DGlblAHuX-7" value="" style="endArrow=classic;html=1;rounded=0;exitX=0.5;exitY=1;exitDx=0;exitDy=0;entryX=0.5;entryY=0;entryDx=0;entryDy=0;" parent="1" source="7-5hp06oOx9DGlblAHuX-6" target="7-5hp06oOx9DGlblAHuX-2" edge="1">
          <mxGeometry width="50" height="50" relative="1" as="geometry">
            <mxPoint x="360" y="510" as="sourcePoint" />
            <mxPoint x="410" y="460" as="targetPoint" />
          </mxGeometry>
        </mxCell>
        <mxCell id="7-5hp06oOx9DGlblAHuX-8" value="" style="endArrow=classic;html=1;rounded=0;entryX=0.5;entryY=0;entryDx=0;entryDy=0;" parent="1" target="7-5hp06oOx9DGlblAHuX-4" edge="1">
          <mxGeometry width="50" height="50" relative="1" as="geometry">
            <mxPoint x="420" y="270" as="sourcePoint" />
            <mxPoint x="305" y="450" as="targetPoint" />
          </mxGeometry>
        </mxCell>
        <mxCell id="7-5hp06oOx9DGlblAHuX-10" value="DB&lt;div&gt;EC2&lt;/div&gt;" style="shape=cylinder3;whiteSpace=wrap;html=1;boundedLbl=1;backgroundOutline=1;size=15;" parent="1" vertex="1">
          <mxGeometry x="385" y="540" width="70" height="90" as="geometry" />
        </mxCell>
        <mxCell id="BbxTTq_It-f2OP_D6hbO-5" value="" style="endArrow=classic;html=1;rounded=0;exitX=0.5;exitY=1;exitDx=0;exitDy=0;entryX=0.5;entryY=0;entryDx=0;entryDy=0;" parent="1" source="7-5hp06oOx9DGlblAHuX-6" target="7-5hp06oOx9DGlblAHuX-1" edge="1">
          <mxGeometry width="50" height="50" relative="1" as="geometry">
            <mxPoint x="180" y="400" as="sourcePoint" />
            <mxPoint x="211.1111111111111" y="260" as="targetPoint" />
          </mxGeometry>
        </mxCell>
      </root>
    </mxGraphModel>
  </diagram>
</mxfile>
